<?xml version="1.0" encoding="utf-8"?>
<!-- Generator: Adobe Illustrator 25.0.1, SVG Export Plug-In . SVG Version: 6.00 Build 0)  -->
<svg version="1.1" id="Layer_1" xmlns="http://www.w3.org/2000/svg" xmlns:xlink="http://www.w3.org/1999/xlink" x="0px" y="0px"
	 viewBox="0 0 34 34" style="enable-background:new 0 0 34 34;" xml:space="preserve">
<style type="text/css">
	.st0{fill:none;stroke:#22235F;stroke-width:2;stroke-linecap:round;stroke-linejoin:round;}
</style>
<path class="st0" d="M27.5,21.2c-0.2,0.4-0.2,0.9-0.2,1.4c0.1,0.5,0.3,0.9,0.6,1.2l0.1,0.1c0.3,0.3,0.5,0.6,0.6,0.9
	c0.1,0.4,0.2,0.7,0.2,1.1s-0.1,0.8-0.2,1.1c-0.1,0.4-0.4,0.7-0.6,0.9c-0.3,0.3-0.6,0.5-0.9,0.6c-0.4,0.1-0.7,0.2-1.1,0.2
	s-0.8-0.1-1.1-0.2c-0.4-0.1-0.7-0.4-0.9-0.6l-0.1-0.1c-0.3-0.3-0.8-0.6-1.2-0.6c-0.5-0.1-1,0-1.4,0.2c-0.4,0.2-0.8,0.5-1,0.9
	c-0.3,0.4-0.4,0.8-0.4,1.3v0.2c0,0.8-0.3,1.5-0.8,2c-0.5,0.5-1.3,0.8-2,0.8c-0.8,0-1.5-0.3-2-0.8c-0.5-0.5-0.8-1.3-0.8-2v-0.1
	c0-0.5-0.2-0.9-0.4-1.3c-0.3-0.4-0.7-0.7-1.1-0.8c-0.4-0.2-0.9-0.2-1.4-0.2c-0.5,0.1-0.9,0.3-1.2,0.6l-0.1,0.1
	c-0.3,0.3-0.6,0.5-0.9,0.6C8.5,28.9,8.2,29,7.8,29c-0.4,0-0.8-0.1-1.1-0.2c-0.4-0.1-0.7-0.4-0.9-0.6c-0.3-0.3-0.5-0.6-0.6-0.9
	c-0.1-0.4-0.2-0.7-0.2-1.1S5,25.3,5.1,25c0.1-0.4,0.4-0.7,0.6-0.9l0.1-0.1c0.3-0.3,0.6-0.8,0.6-1.2c0.1-0.5,0-1-0.2-1.4
	c-0.2-0.4-0.5-0.8-0.9-1C5,20,4.6,19.9,4.1,19.9H3.9c-0.8,0-1.5-0.3-2-0.8C1.3,18.5,1,17.8,1,17c0-0.8,0.3-1.5,0.8-2
	c0.5-0.5,1.3-0.8,2-0.8H4c0.5,0,0.9-0.2,1.3-0.4C5.7,13.4,6,13,6.2,12.5c0.2-0.4,0.2-0.9,0.2-1.4c-0.1-0.5-0.3-0.9-0.6-1.2L5.6,9.8
	C5.4,9.6,5.1,9.2,5,8.9C4.9,8.5,4.8,8.2,4.8,7.8C4.8,7.4,4.9,7,5,6.7C5.1,6.3,5.4,6,5.6,5.7c0.3-0.3,0.6-0.5,0.9-0.6
	C6.9,5,7.3,4.9,7.7,4.9c0.4,0,0.8,0.1,1.1,0.2c0.4,0.1,0.7,0.4,0.9,0.6l0.1,0.1c0.3,0.3,0.8,0.6,1.2,0.6c0.5,0.1,1,0,1.4-0.2h0.1
	c0.4-0.2,0.8-0.5,1-0.9C13.8,5,14,4.6,14,4.1V3.9c0-0.8,0.3-1.5,0.8-2c0.5-0.5,1.3-0.8,2-0.8c0.8,0,1.5,0.3,2,0.8
	c0.5,0.5,0.8,1.3,0.8,2V4c0,0.5,0.1,0.9,0.4,1.3c0.3,0.4,0.6,0.7,1,0.9c0.4,0.2,0.9,0.2,1.4,0.2s0.9-0.3,1.2-0.6l0.1-0.1
	c0.3-0.3,0.6-0.5,0.9-0.6c0.4-0.1,0.7-0.2,1.1-0.2s0.8,0.1,1.1,0.2c0.4,0.1,0.7,0.4,0.9,0.6c0.3,0.3,0.5,0.6,0.6,0.9
	c0.1,0.4,0.2,0.7,0.2,1.1c0,0.4-0.1,0.8-0.2,1.1c-0.1,0.4-0.4,0.7-0.6,0.9l-0.1,0.1c-0.3,0.3-0.6,0.8-0.6,1.2c-0.1,0.5,0,1,0.2,1.4
	v0.1c0.2,0.4,0.5,0.8,0.9,1c0.4,0.3,0.8,0.4,1.3,0.4h0.2c0.8,0,1.5,0.3,2,0.8c0.5,0.5,0.8,1.3,0.8,2c0,0.8-0.3,1.5-0.8,2
	c-0.5,0.5-1.3,0.8-2,0.8h-0.1c-0.5,0-0.9,0.1-1.3,0.4C28,20.4,27.7,20.8,27.5,21.2L27.5,21.2z"/>
<path class="st0" d="M17,21.2c2.4,0,4.3-1.9,4.3-4.3s-1.9-4.3-4.3-4.3c-2.4,0-4.3,1.9-4.3,4.3S14.6,21.2,17,21.2z"/>
</svg>
