<svg width="24" height="21" viewBox="0 0 24 21" fill="none" xmlns="http://www.w3.org/2000/svg">
<path d="M20.7508 2.61183C20.2336 2.10083 19.6195 1.69547 18.9436 1.41891C18.2677 1.14235 17.5432 1 16.8116 1C16.0799 1 15.3555 1.14235 14.6796 1.41891C14.0037 1.69547 13.3896 2.10083 12.8723 2.61183L11.7989 3.67183L10.7255 2.61183C9.68075 1.58013 8.26376 1.00053 6.78626 1.00053C5.30876 1.00053 3.89177 1.58013 2.84702 2.61183C1.80227 3.64352 1.21533 5.04279 1.21533 6.50183C1.21533 7.96086 1.80227 9.36013 2.84702 10.3918L3.92044 11.4518L11.7989 19.2318L19.6774 11.4518L20.7508 10.3918C21.2683 9.88107 21.6788 9.27464 21.9588 8.60718C22.2389 7.93972 22.383 7.22431 22.383 6.50183C22.383 5.77934 22.2389 5.06393 21.9588 4.39647C21.6788 3.72901 21.2683 3.12258 20.7508 2.61183Z" stroke="white" stroke-width="2" stroke-linecap="round" stroke-linejoin="round"/>
</svg>
