<?xml version="1.0" encoding="utf-8"?>
<!-- Generator: Adobe Illustrator 25.0.1, SVG Export Plug-In . SVG Version: 6.00 Build 0)  -->
<svg version="1.1" id="Layer_1" xmlns="http://www.w3.org/2000/svg" xmlns:xlink="http://www.w3.org/1999/xlink" x="0px" y="0px"
	 viewBox="0 0 36.2 16.1" style="enable-background:new 0 0 36.2 16.1;" xml:space="preserve">
<style type="text/css">
	.st0{fill:#FFFFFF;stroke:#22235F;stroke-width:2;stroke-linecap:round;stroke-linejoin:round;}
	.st1{fill:#22235F;}
</style>
<path class="st0" d="M28,1.1l2.2,4.6L35,6.5L31.5,10l0.8,5.1L28,12.7l-4.3,2.4l0.8-5.1L21,6.5l4.8-0.7L28,1.1z"/>
<path class="st1" d="M3.7,12.5c-0.6,0-1.2-0.1-1.7-0.3c-0.5-0.2-0.9-0.5-1.2-0.9c-0.3-0.4-0.4-0.8-0.4-1.3h1.9
	c0,0.2,0.1,0.4,0.2,0.6c0.1,0.2,0.3,0.3,0.5,0.4S3.5,11,3.7,11c0.3,0,0.5,0,0.7-0.1c0.2-0.1,0.4-0.2,0.5-0.4s0.2-0.4,0.2-0.6
	c0-0.2-0.1-0.4-0.2-0.6C4.8,9,4.7,8.9,4.4,8.8C4.2,8.7,3.9,8.6,3.6,8.6H2.8V7.3h0.8c0.3,0,0.5,0,0.7-0.1C4.5,7,4.7,6.9,4.8,6.7
	C4.9,6.6,5,6.4,5,6.1c0-0.2-0.1-0.4-0.2-0.6C4.7,5.4,4.6,5.3,4.4,5.2C4.2,5.1,4,5,3.7,5c-0.2,0-0.5,0-0.7,0.1
	C2.9,5.3,2.7,5.4,2.6,5.5C2.4,5.7,2.4,5.9,2.4,6.1H0.6c0-0.5,0.2-0.9,0.4-1.3c0.3-0.4,0.7-0.7,1.1-0.9c0.5-0.2,1-0.3,1.6-0.3
	c0.6,0,1.1,0.1,1.6,0.3c0.5,0.2,0.8,0.5,1.1,0.9C6.6,5.2,6.8,5.6,6.8,6c0,0.5-0.1,0.9-0.5,1.2C6,7.6,5.6,7.8,5.1,7.9v0.1
	C5.8,8,6.2,8.2,6.6,8.6C6.9,9,7.1,9.4,7.1,10c0,0.5-0.1,0.9-0.4,1.3C6.4,11.7,6,12,5.5,12.2S4.4,12.5,3.7,12.5z"/>
</svg>
