<?xml version="1.0" encoding="utf-8"?>
<!-- Generator: Adobe Illustrator 25.0.1, SVG Export Plug-In . SVG Version: 6.00 Build 0)  -->
<svg version="1.1" id="Layer_1" xmlns="http://www.w3.org/2000/svg" xmlns:xlink="http://www.w3.org/1999/xlink" x="0px" y="0px"
	 viewBox="0 0 36.2 16.1" style="enable-background:new 0 0 36.2 16.1;" xml:space="preserve">
<style type="text/css">
	.st0{fill:#FFFFFF;stroke:#22235F;stroke-width:2;stroke-linecap:round;stroke-linejoin:round;}
	.st1{fill:#22235F;}
</style>
<path class="st0" d="M28,1.1l2.2,4.6L35,6.5L31.5,10l0.8,5.1L28,12.7l-4.3,2.4l0.8-5.1L21,6.5l4.8-0.7L28,1.1z"/>
<path class="st1" d="M0.7,12.4v-1.3l3.1-2.9C4.1,8,4.3,7.7,4.5,7.5c0.2-0.2,0.3-0.4,0.4-0.6C5,6.7,5,6.5,5,6.3C5,6,4.9,5.8,4.8,5.6
	C4.7,5.4,4.6,5.3,4.4,5.2C4.2,5.1,3.9,5,3.7,5C3.4,5,3.2,5.1,3,5.2C2.8,5.3,2.6,5.5,2.5,5.7C2.4,5.9,2.3,6.1,2.3,6.4H0.6
	c0-0.6,0.1-1.1,0.4-1.5c0.3-0.4,0.6-0.7,1.1-1c0.5-0.2,1-0.3,1.6-0.3c0.6,0,1.2,0.1,1.6,0.3c0.5,0.2,0.8,0.5,1.1,0.9
	c0.3,0.4,0.4,0.8,0.4,1.3c0,0.3-0.1,0.7-0.2,1C6.5,7.5,6.2,7.8,5.9,8.2C5.6,8.6,5.1,9.1,4.5,9.6l-1.3,1.2v0.1h3.7v1.5H0.7z"/>
</svg>
