<?xml version="1.0" encoding="utf-8"?>
<!-- Generator: Adobe Illustrator 25.0.1, SVG Export Plug-In . SVG Version: 6.00 Build 0)  -->
<svg version="1.1" id="Layer_1" xmlns="http://www.w3.org/2000/svg" xmlns:xlink="http://www.w3.org/1999/xlink" x="0px" y="0px"
	 viewBox="0 0 36.2 16.1" style="enable-background:new 0 0 36.2 16.1;" xml:space="preserve">
<style type="text/css">
	.st0{fill:#FFFFFF;stroke:#22235F;stroke-width:2;stroke-linecap:round;stroke-linejoin:round;}
	.st1{fill:#22235F;}
</style>
<path class="st0" d="M28,1.1l2.2,4.6L35,6.5L31.5,10l0.8,5.1L28,12.7l-4.3,2.4l0.8-5.1L21,6.5l4.8-0.7L28,1.1z"/>
<path class="st1" d="M3.8,12.5c-0.6,0-1.1-0.1-1.6-0.3c-0.5-0.2-0.8-0.5-1.1-0.9c-0.3-0.4-0.4-0.8-0.4-1.3h1.8
	c0,0.3,0.2,0.6,0.4,0.8c0.3,0.2,0.6,0.3,0.9,0.3c0.3,0,0.5-0.1,0.8-0.2c0.2-0.1,0.4-0.3,0.5-0.5c0.1-0.2,0.2-0.5,0.2-0.8
	c0-0.3-0.1-0.6-0.2-0.8C4.9,8.5,4.8,8.3,4.5,8.2S4.1,8,3.8,8C3.5,8,3.3,8,3,8.1C2.8,8.2,2.6,8.4,2.5,8.6L0.8,8.3l0.4-4.6h5.3v1.5
	H2.7L2.5,7.4h0.1C2.7,7.2,3,7,3.3,6.8c0.3-0.1,0.7-0.2,1-0.2c0.5,0,1,0.1,1.4,0.4c0.4,0.2,0.7,0.6,1,1C6.9,8.4,7,8.9,7,9.5
	c0,0.6-0.1,1.1-0.4,1.6c-0.3,0.5-0.7,0.8-1.1,1.1C5,12.4,4.4,12.5,3.8,12.5z"/>
</svg>
