<?xml version="1.0" encoding="utf-8"?>
<!-- Generator: Adobe Illustrator 25.0.1, SVG Export Plug-In . SVG Version: 6.00 Build 0)  -->
<svg version="1.1" id="Layer_1" xmlns="http://www.w3.org/2000/svg" xmlns:xlink="http://www.w3.org/1999/xlink" x="0px" y="0px"
	 viewBox="0 0 40.7 15" style="enable-background:new 0 0 40.7 15;" xml:space="preserve">
<style type="text/css">
	.st0{fill:#FFFFFF;}
	.st1{fill:none;stroke:#22235F;stroke-width:2;}
	.st2{fill:none;stroke:#22235F;stroke-width:2;stroke-linecap:round;stroke-linejoin:round;}
</style>
<path class="st0" d="M7.5,1h1C12.1,1,15,3.9,15,7.5l0,0c0,3.6-2.9,6.5-6.5,6.5h-1C3.9,14,1,11.1,1,7.5l0,0C1,3.9,3.9,1,7.5,1z"/>
<path class="st1" d="M7.5,1h1C12.1,1,15,3.9,15,7.5l0,0c0,3.6-2.9,6.5-6.5,6.5h-1C3.9,14,1,11.1,1,7.5l0,0C1,3.9,3.9,1,7.5,1z"/>
<path class="st2" d="M25.5,4l7,7l7-7"/>
</svg>
